<svg xmlns="http://www.w3.org/2000/svg" width="121.76" height="31" viewBox="0 0 121.76 31"><path d="M12.96-2.04a1.119,1.119,0,0,0,.6.52,3.461,3.461,0,0,0,1.04.12h.68v4H14.12A3.373,3.373,0,0,1,10.44-.08,8.073,8.073,0,0,1,7.52.4,6.459,6.459,0,0,1,2.56-1.44,7.327,7.327,0,0,1,.84-6.64V-21.36a7.327,7.327,0,0,1,1.72-5.2A6.459,6.459,0,0,1,7.52-28.4a6.459,6.459,0,0,1,4.96,1.84,7.327,7.327,0,0,1,1.72,5.2V-6.64A7.935,7.935,0,0,1,12.96-2.04ZM9.8-6.36V-21.64q0-2.76-2.28-2.76T5.24-21.64V-6.36q0,2.76,2.28,2.76T9.8-6.36Zm16.92.04V-28h4.24V-6.64a7.423,7.423,0,0,1-1.68,5.22A6.313,6.313,0,0,1,24.4.4a6.313,6.313,0,0,1-4.88-1.82,7.423,7.423,0,0,1-1.68-5.22V-28h4.4V-6.32a3.053,3.053,0,0,0,.58,2.08,2.126,2.126,0,0,0,1.66.64,2.126,2.126,0,0,0,1.66-.64A3.053,3.053,0,0,0,26.72-6.32ZM37.8-28h5.96L48.32,0h-4.4l-.8-5.56v.08h-5L37.32,0H33.24Zm.84,18.72H42.6L40.64-23.12h-.08Zm22.6-1.96V-28h3.92V0H60.64L55.36-20.44,55.28,0H51.36V-24.04H50.4V-28h6.48l4.28,16.76ZM67.6-24v-4H81.2v4H76.6V0H72.2V-24Zm22.28-4V0h-4.4V-24.04H83.92V-28ZM93.64,0V-28h11.64v4H98.04v7.8h5.68v4H98.04V0Zm21.68-17.72,3-10.28h4.28l-5.32,16.08V0h-4.4V-11.92L107.56-28h4.68l3,10.28Z" transform="translate(-0.84 28.4)" fill="#FFF"/></svg>