<?xml version="1.0" encoding="utf-8"?>
<svg version="1.1" id="quantify" xmlns="http://www.w3.org/2000/svg" xmlns:xlink="http://www.w3.org/1999/xlink" x="0px" y="0px" viewBox="0 0 121.8 31" xml:space="preserve">	 
	<path id="q" fill="#FFFFFF" d="M13.8,27c-0.4,0-0.7,0-1-0.1c-0.3-0.1-0.5-0.3-0.6-0.5c0.9-1.4,1.3-3,1.2-4.6V7c0.1-1.9-0.5-3.8-1.7-5.2c-1.3-1.3-3.1-2-5-1.8C4.9-0.1,3,0.5,1.7,1.8C0.5,3.3-0.1,5.1,0,7v14.7c-0.1,1.9,0.5,3.8,1.7,5.2c1.3,1.3,3.1,2,5,1.8c1,0,2-0.1,2.9-0.5c0.3,1.7,1.9,2.9,3.7,2.7h1.2v-4H13.8z M9,22c0,1.8-0.8,2.8-2.3,2.8S4.4,23.9,4.4,22V6.8C4.4,4.9,5.2,4,6.7,4S9,4.9,9,6.8V22z"/>

	<path id="u" fill="#FFFFFF" d="M25.7,21.7V0H30v21.4c0.1,1.9-0.5,3.8-1.7,5.2c-1.3,1.3-3.1,1.9-4.9,1.8c-1.8,0.1-3.6-0.5-4.9-1.8c-1.2-1.5-1.8-3.3-1.7-5.2V0h4.4v21.7c-0.1,0.7,0.1,1.5,0.6,2.1c0.4,0.4,1,0.7,1.7,0.6c0.6,0,1.2-0.2,1.7-0.6C25.6,23.2,25.8,22.4,25.7,21.7z"/>

	<path id="a" fill="#FFFFFF" d="M42.7,0h-6l-4.6,28h4.1l0.8-5.5h5v-0.1l0.8,5.6h4.4L42.7,0z M37.5,18.7l1.9-13.8h0.1l2,13.8H37.5z"/>

	<polygon id="n" fill="#FFFFFF" points="60.5,16.8 60.5,0 64.4,0 64.4,28 59.9,28 54.6,7.6 54.5,28 50.6,28 50.6,4 49.6,4 49.6,0 56.1,0 60.4,16.8 	"/>

	<polygon id="t" fill="#FFFFFF" points="66.9,4 66.9,0 80.5,0 80.5,4 75.9,4 75.9,28 71.5,28 71.5,4 	"/>

	<polygon id="i" fill="#FFFFFF" points="89.6,0 89.6,28 85.2,28 85.2,4 83.7,4 83.7,0 	"/>

	<polygon id="f" fill="#FFFFFF" points="92.8,28 92.8,0 104.4,0 104.4,4 97.2,4 97.2,11.8 102.9,11.8 102.9,15.8 97.2,15.8 97.2,28 "/>

	<path id="y" fill="#FFFFFF" d="M114.5,10.3l3-10.3h4.3l-5.3,16.1V28H112V16.1L106.7,0h4.7L114.5,10.3L114.5,10.3z"/>
</svg>
